<svg width="22" height="26" viewBox="0 0 22 26" fill="none" xmlns="http://www.w3.org/2000/svg">
<path d="M5.23494 25.5133C4.72232 25.1723 4.268 24.7509 3.88944 24.2653C3.47302 23.7641 3.08719 23.2383 2.73406 22.6907C1.90538 21.4767 1.2555 20.1498 0.804375 18.7509C0.262437 17.1259 0 15.5683 0 14.0449C0 12.3435 0.368063 10.8582 1.08794 9.61024C1.62157 8.63478 2.40615 7.81963 3.3605 7.24911C4.28537 6.67465 5.34807 6.36028 6.43662 6.33911C6.81769 6.33911 7.228 6.39436 7.6635 6.49999C7.97631 6.58855 8.35737 6.7283 8.82294 6.90218C9.41525 7.13049 9.74106 7.27024 9.85156 7.30436C10.1985 7.43111 10.4902 7.48636 10.7193 7.48636C10.8932 7.48636 11.1386 7.43111 11.4172 7.34661C11.5741 7.29136 11.8698 7.19386 12.2931 7.01268C12.7124 6.85993 13.0422 6.72911 13.3047 6.63161C13.7069 6.51299 14.0961 6.4033 14.443 6.34805C14.8543 6.28321 15.2717 6.26603 15.6869 6.29686C16.4065 6.34389 17.1153 6.49638 17.7905 6.74943C18.8947 7.19386 19.7876 7.88774 20.4522 8.87411C20.1713 9.04725 19.9077 9.24696 19.6649 9.47049C19.1365 9.93896 18.6864 10.4889 18.3316 11.0996C17.8679 11.934 17.6275 12.8741 17.6337 13.8287C17.6507 15.0012 17.9514 16.0339 18.5437 16.9268C18.9791 17.5886 19.5451 18.1545 20.2069 18.59C20.5457 18.8183 20.8374 18.9751 21.1169 19.0807C20.9861 19.487 20.8463 19.8802 20.6814 20.2702C20.3073 21.1448 19.8539 21.9833 19.3269 22.7752C18.8573 23.4569 18.4892 23.9647 18.2097 24.3027C17.7742 24.8186 17.355 25.2127 16.9317 25.4873C16.4661 25.7961 15.9161 25.961 15.3571 25.961C14.9785 25.9755 14.6 25.9297 14.2358 25.8253C13.923 25.7197 13.6134 25.6051 13.3087 25.4743C12.992 25.3288 12.6654 25.2058 12.3313 25.1062C11.5056 24.8941 10.6398 24.8928 9.81337 25.1022C9.47456 25.1997 9.14875 25.3134 8.827 25.4532C8.37444 25.6433 8.07381 25.7709 7.89994 25.8253C7.553 25.9269 7.19306 25.9902 6.82906 26.0114C6.266 26.0114 5.74112 25.8505 5.22112 25.5247L5.23494 25.5133ZM12.6612 5.51361C11.9251 5.88168 11.2222 6.03849 10.5243 5.9873C10.4146 5.28449 10.5243 4.56543 10.816 3.77811C11.0643 3.1111 11.4313 2.49451 11.8991 1.95811C12.3931 1.39344 12.9925 0.930607 13.6638 0.595551C14.3788 0.227488 15.0605 0.028426 15.7121 -0.000823975C15.7966 0.735301 15.7121 1.45924 15.4416 2.24168C15.1912 2.93334 14.8249 3.57737 14.3585 4.14618C13.8824 4.71162 13.2982 5.17625 12.6401 5.5128L12.6612 5.51361Z" fill="black"/>
</svg>
