<svg width="100" height="100" viewBox="0 0 100 100" fill="none" xmlns="http://www.w3.org/2000/svg">
<path d="M96.4793 49.9979C98.0236 48.1995 99.1059 46.0514 99.6321 43.74C100.158 41.4286 100.113 39.0238 99.4991 36.734C98.8856 34.4443 97.7225 32.3388 96.111 30.6003C94.4995 28.8618 92.4882 27.5427 90.2515 26.7575C90.6898 24.4277 90.5529 22.0262 89.8529 19.7613C89.1529 17.4964 87.9108 15.4365 86.2344 13.7603C84.558 12.0841 82.4979 10.8423 80.2329 10.1425C77.9679 9.44279 75.5664 9.30627 73.2367 9.74482C72.4521 7.5076 71.1332 5.4957 69.3947 3.8838C67.6561 2.2719 65.5504 1.10873 63.2603 0.495265C60.9703 -0.118197 58.5651 -0.163404 56.2535 0.36357C53.942 0.890545 51.7941 1.97377 49.9962 3.5192C48.1978 1.97483 46.0497 0.892584 43.7383 0.366338C41.4269 -0.159908 39.022 -0.114256 36.7323 0.499332C34.4425 1.11292 32.3371 2.27591 30.5986 3.88742C28.86 5.49893 27.541 7.51028 26.7558 9.74699C24.4261 9.30914 22.0249 9.44627 19.7603 10.1465C17.4956 10.8467 15.4361 12.0888 13.7601 13.7652C12.0842 15.4415 10.8426 17.5014 10.143 19.7662C9.44334 22.031 9.30683 24.4323 9.74527 26.7618C7.50856 27.547 5.4972 28.8661 3.88569 30.6046C2.27418 32.3431 1.11119 34.4486 0.497598 36.7384C-0.11599 39.0281 -0.161649 41.433 0.364597 43.7444C0.890843 46.0557 1.97311 48.2038 3.51748 50.0023C1.97264 51.8006 0.890041 53.9489 0.363645 56.2605C-0.162751 58.5721 -0.117053 60.9773 0.496804 63.2672C1.11066 65.5572 2.27411 67.6627 3.88617 69.4011C5.49823 71.1395 7.51021 72.4582 9.74744 73.2427C9.30862 75.5723 9.44497 77.9737 10.1447 80.2387C10.8444 82.5036 12.0864 84.5635 13.7627 86.2396C15.439 87.9157 17.4991 89.1574 19.7641 89.8568C22.0291 90.5562 24.4306 90.6923 26.7601 90.2532C27.5453 92.4899 28.8644 94.5013 30.6029 96.1128C32.3414 97.7243 34.4469 98.8873 36.7366 99.5008C39.0264 100.114 41.4312 100.16 43.7426 99.6338C46.054 99.1076 48.2021 98.0253 50.0005 96.481C51.7989 98.0258 53.9472 99.1084 56.2588 99.6348C58.5704 100.161 60.9756 100.115 63.2655 99.5016C65.5555 98.8878 67.661 97.7243 69.3994 96.1123C71.1378 94.5002 72.4565 92.4882 73.241 90.251C75.5706 90.6897 77.9721 90.5533 80.2371 89.8535C82.502 89.1538 84.562 87.9119 86.2383 86.2357C87.9145 84.5594 89.1564 82.4994 89.8562 80.2345C90.5559 77.9695 90.6923 75.568 90.2536 73.2384C92.4905 72.4534 94.5021 71.1343 96.1136 69.3957C97.7252 67.6571 98.8882 65.5515 99.5016 63.2616C100.115 60.9717 100.16 58.5667 99.6336 56.2553C99.107 53.944 98.0242 51.796 96.4793 49.9979Z" fill="#18C07A"/>
</svg>
