<svg width="24" height="24" viewBox="0 0 24 24" fill="none" xmlns="http://www.w3.org/2000/svg">
<path d="M5.23832 14.2838L4.41557 17.3552L1.40844 17.4188C0.509752 15.752 0 13.8449 0 11.8182C0 9.85848 0.476605 8.01041 1.32142 6.38315H1.32207L3.99925 6.87397L5.17202 9.53509C4.92657 10.2507 4.79278 11.0189 4.79278 11.8182C4.79287 12.6857 4.95002 13.5169 5.23832 14.2838Z" fill="#FBBB00"/>
<path d="M23.43 9.61035C23.5657 10.3253 23.6365 11.0636 23.6365 11.8181C23.6365 12.6642 23.5475 13.4896 23.3781 14.2857C22.8028 16.9948 21.2995 19.3604 19.217 21.0344L19.2164 21.0337L15.8443 20.8617L15.3671 17.8824C16.7489 17.0721 17.8288 15.8039 18.3976 14.2857H12.0781V9.61035H18.4898H23.43Z" fill="#518EF8"/>
<path d="M19.2162 21.0338L19.2169 21.0344C17.1916 22.6623 14.6188 23.6364 11.8182 23.6364C7.31754 23.6364 3.40457 21.1208 1.40845 17.4189L5.23832 14.2838C6.23636 16.9474 8.80584 18.8436 11.8182 18.8436C13.113 18.8436 14.326 18.4935 15.3669 17.8825L19.2162 21.0338Z" fill="#28B446"/>
<path d="M19.3618 2.72077L15.5332 5.85517C14.456 5.18181 13.1826 4.79283 11.8183 4.79283C8.73777 4.79283 6.12022 6.77593 5.17218 9.53506L1.32218 6.38311H1.32153C3.28843 2.59091 7.25075 0 11.8183 0C14.6858 0 17.315 1.02144 19.3618 2.72077Z" fill="#F14336"/>
</svg>
