<svg width="47" height="37" viewBox="0 0 47 37" fill="none" xmlns="http://www.w3.org/2000/svg">
<path d="M14.7179 35.6253L0.823501 21.7396C0.296186 21.2114 0 20.4956 0 19.7492C0 19.0029 0.296186 18.2871 0.823501 17.7589L2.51156 16.0687C3.03972 15.5414 3.75554 15.2452 4.50188 15.2452C5.24822 15.2452 5.96406 15.5414 6.49223 16.0687L16.5923 26.1623L40.3789 0.884931C40.8907 0.341855 41.5971 0.0240621 42.343 0.00131095C43.0889 -0.0214402 43.8134 0.25271 44.3574 0.763583L46.0909 2.39962C46.6347 2.91153 46.9529 3.6184 46.9756 4.36484C46.9984 5.11128 46.7238 5.83621 46.2123 6.38029L18.7658 35.5625C18.5074 35.8379 18.1962 36.0586 17.8508 36.2113C17.5054 36.3641 17.1328 36.4458 16.7552 36.4517C16.3776 36.4575 16.0026 36.3874 15.6526 36.2454C15.3026 36.1035 14.9848 35.8926 14.7179 35.6253Z" fill="white"/>
</svg>
